Coordinates
version=1
nRows=10
nColumns=63
inDegrees=yes

Units are S.I. units (second, meters, Newtons, ...)
If the header above contains a line with 'inDegrees', this indicates whether rotational values are in degrees (yes) or radians (no).

endheader
time	pelvis_tilt	pelvis_list	pelvis_rotation	pelvis_tx	pelvis_ty	pelvis_tz	hip_flexion_r	hip_adduction_r	hip_rotation_r	knee_angle_r	knee_angle_r_beta	ankle_angle_r	subtalar_angle_r	mtp_angle_r	hip_flexion_l	hip_adduction_l	hip_rotation_l	knee_angle_l	knee_angle_l_beta	ankle_angle_l	subtalar_angle_l	mtp_angle_l	L5_S1_Flex_Ext	L5_S1_Lat_Bending	L5_S1_axial_rotation	L4_L5_Flex_Ext	L4_L5_Lat_Bending	L4_L5_axial_rotation	L3_L4_Flex_Ext	L3_L4_Lat_Bending	L3_L4_axial_rotation	L2_L3_Flex_Ext	L2_L3_Lat_Bending	L2_L3_axial_rotation	L1_L2_Flex_Ext	L1_L2_Lat_Bending	L1_L2_axial_rotation	L1_T12_Flex_Ext	L1_T12_Lat_Bending	L1_T12_axial_rotation	Abs_r3	Abs_r2	Abs_r1	Abs_t1	Abs_t2	neck_flexion	neck_bending	neck_rotation	arm_flex_r	arm_add_r	arm_rot_r	elbow_flex_r	pro_sup_r	wrist_flex_r	wrist_dev_r	arm_flex_l	arm_add_l	arm_rot_l	elbow_flex_l	pro_sup_l	wrist_flex_l	wrist_dev_l
      5.26530612	     -5.27879861	     -7.48224622	     96.27149559	      0.24228034	      0.90900898	      0.49627767	     -2.67540591	     -1.99114984	     -3.66583142	      5.90135764	      0.10299812	     21.46905563	     -5.29922658	      0.00000000	     -1.09483737	      1.68656098	     -4.79113356	      5.72007872	      0.09983421	     17.57863226	      7.13861895	      0.00000000	      0.24627668	     -0.95924712	      1.02720710	      0.45736042	     -1.27579867	      1.09140754	      0.40460795	     -2.33231345	      1.09140754	      0.28146962	     -2.33231345	      0.89880621	      0.22869252	     -1.95609673	      0.83460577	      0.14072249	     -1.48587379	      0.77040532	      1.75912969	    -10.85119527	      5.71301771	      0.00000000	      0.00000000	     28.23713687	     -3.91644148	    -23.66633767	      5.03244766	    -18.94051886	     46.35047904	    143.32346609	     80.13182817	      4.75618765	      3.81785621	     14.77209837	    -12.11194138	    172.48040747	      6.57834294	     22.20197897	     -6.28798401	     -4.16781720
      5.28571429	     -5.20918133	     -7.47921608	     96.42650142	      0.24211512	      0.90812096	      0.49535008	     -2.71154433	     -1.88945636	     -3.74304346	      6.06404403	      0.10583753	     21.75855304	     -5.45125082	      0.00000000	     -1.21433903	      1.60602629	     -4.59055818	      5.59618330	      0.09767182	     17.91352201	      7.05095686	      0.00000000	      0.22443843	     -0.95400283	      1.01858797	      0.41680461	     -1.26882377	      1.08224972	      0.36872989	     -2.31956248	      1.08224972	      0.25651068	     -2.31956248	      0.89126448	      0.20841353	     -1.94540257	      0.82760273	      0.12824412	     -1.47775039	      0.76394098	      1.60314125	    -10.79187083	      5.66508072	      0.00000000	      0.00000000	     28.25578702	     -3.90206172	    -23.45372297	      3.86063593	    -18.58823179	     46.56204597	    143.14061711	     80.10441876	      4.89522267	      3.91925770	     14.51006782	    -12.02528418	    172.54623269	      6.22850394	     22.22693758	     -6.72888683	     -3.90648427
      5.30612245	     -5.14430720	     -7.49842756	     96.44327952	      0.24207696	      0.90728360	      0.49467067	     -2.72920556	     -1.81308776	     -3.79791658	      6.17525147	      0.10777847	     21.80864887	     -5.54577120	      0.00000000	     -1.27971412	      1.53903959	     -4.51122113	      5.52786680	      0.09647948	     18.19629182	      6.97972322	      0.00000000	      0.19796410	     -0.94920641	      0.99511002	      0.36763914	     -1.26244453	      1.05730440	      0.32523523	     -2.30790047	      1.05730440	      0.22625317	     -2.30790047	      0.87072127	      0.18382947	     -1.93562172	      0.80852690	      0.11311669	     -1.47032073	      0.74633252	      1.41403779	    -10.73761279	      5.53450343	      0.00000000	      0.00000000	     28.26404565	     -3.87886155	    -23.36559302	      2.97212464	    -18.33091352	     47.13384234	    142.90706205	     80.25447978	      5.02994942	      4.11543506	     14.36553222	    -11.95337284	    172.53938422	      6.12493295	     22.20331522	     -6.93664622	     -3.74110095
      5.32653061	     -5.04417422	     -7.53240054	     96.46869131	      0.24204629	      0.90643763	      0.49384823	     -2.74534592	     -1.69821602	     -3.83164664	      6.28465918	      0.10968800	     21.87295713	     -5.70840886	      0.00000000	     -1.34210145	      1.43381600	     -4.27493555	      5.43870918	      0.09492338	     18.56175758	      6.97335177	      0.00000000	      0.17669922	     -0.94013668	      0.95271808	      0.32814813	     -1.25038179	      1.01226296	      0.29029916	     -2.28584833	      1.01226296	      0.20194954	     -2.28584833	      0.83362832	      0.16408290	     -1.91712672	      0.77408344	      0.10096594	     -1.45627172	      0.71453856	      1.26214489	    -10.63501419	      5.29873212	      0.00000000	      0.00000000	     28.26990829	     -3.87046383	    -23.21178898	      1.98402103	    -17.99360312	     47.68418375	    142.63555816	     80.61646067	      5.06948427	      4.49684197	     14.11789983	    -11.89272541	    172.37350793	      6.01913141	     22.02281363	     -7.14129749	     -3.49537719
      5.34693878	     -4.80662198	     -7.66431764	     97.19799652	      0.24063126	      0.90548624	      0.49328871	     -2.80361906	     -1.35171866	     -2.76066800	      6.16470040	      0.10759432	     21.33150762	     -8.45883493	      0.00000000	     -1.23358924	      1.27275428	     -1.95020442	      5.30303295	      0.09255539	     18.69065629	      5.34432853	      0.00000000	      0.17685996	     -0.90621346	      0.73050848	      0.32844664	     -1.20526391	      0.77616526	      0.29056323	     -2.20336742	      0.77616526	      0.20213325	     -2.20336742	      0.63919492	      0.16423216	     -1.84795050	      0.59353814	      0.10105778	     -1.40372466	      0.54788136	      1.26329303	    -10.25126795	      4.06286903	      0.00000000	      0.00000000	     28.28365446	     -3.64074055	    -22.30710261	      1.38564058	    -17.83991134	     48.24800107	    142.85011168	     84.81537196	      3.64407341	      6.69204317	     13.51369208	    -11.96002600	    169.11368585	      6.12214408	     18.81457281	     -7.12594601	     -3.18461445
      5.36734694	     -4.67542483	     -7.58159192	     97.50774257	      0.24004742	      0.90479099	      0.49260044	     -3.03092372	     -1.16437288	     -2.50642723	      6.08053683	      0.10612539	     21.26515818	     -9.38505873	      0.00000000	     -1.34497407	      1.13304450	     -1.01573064	      5.28310134	      0.09220751	     19.01320706	      5.07610892	      0.00000000	      0.15481768	     -0.88635177	      0.57266830	      0.28751192	     -1.17884786	      0.60846007	      0.25434997	     -2.15507571	      0.60846007	      0.17694113	     -2.15507571	      0.50108476	      0.14376370	     -1.80744854	      0.46529299	      0.08846282	     -1.37295890	      0.42950122	      1.10584723	    -10.02658855	      3.18500928	      0.00000000	      0.00000000	     28.28171243	     -3.61388733	    -22.01983205	      1.18144167	    -17.73342499	     49.17060969	    142.78755838	     85.76478015	      2.65232403	      8.63472987	     13.02076641	    -12.06275395	    166.77968035	      6.09823300	     16.66134027	     -5.89067353	     -3.22321160
      5.38775510	     -4.56632318	     -7.45634344	     97.73067752	      0.23940576	      0.90397818	      0.49199378	     -3.26505391	     -1.03205583	     -2.11779518	      6.04509981	      0.10550690	     21.42595856	    -10.07869709	      0.00000000	     -1.55327975	      1.01733987	     -0.15449091	      5.14714496	      0.08983463	     19.37577950	      4.96567399	      0.00000000	      0.13562891	     -0.86507523	      0.46503588	      0.25187646	     -1.15055005	      0.49410062	      0.22282474	     -2.10334391	      0.49410062	      0.15501029	     -2.10334391	      0.40690640	      0.12594501	     -1.76406141	      0.37784165	      0.07749836	     -1.34000153	      0.34877691	      0.96878377	     -9.78590400	      2.58639005	      0.00000000	      0.00000000	     28.27646563	     -3.66121114	    -21.82156247	      0.96039521	    -17.74169977	     49.98483392	    142.70340378	     86.11790222	      1.78261102	     10.11274818	     12.47030954	    -12.17808867	    164.35994591	      5.95257346	     14.42727718	     -4.56691938	     -3.96542386
      5.40816327	     -4.51350993	     -7.42240485	     97.89975099	      0.23893682	      0.90284029	      0.49136510	     -3.42840754	     -0.96071743	     -1.62237702	      5.92316333	      0.10337870	     21.57693545	    -10.89258779	      0.00000000	     -1.63002705	      0.98063903	      0.63915500	      5.12016740	      0.08936378	     19.75106678	      4.57128018	      0.00000000	      0.14259561	     -0.85339188	      0.39194818	      0.26481430	     -1.13501120	      0.41644494	      0.23427032	     -2.07493702	      0.41644494	      0.16297252	     -2.07493702	      0.34295465	      0.13241428	     -1.74023672	      0.31845789	      0.08147913	     -1.32190402	      0.29396113	      1.01854617	     -9.65373964	      2.17989817	      0.00000000	      0.00000000	     28.28201504	     -3.53048426	    -21.54900117	      0.41397547	    -17.56707074	     50.42115383	    142.60590863	     85.78629830	      1.18543683	     11.48993683	     11.92773746	    -12.33070615	    161.92791611	      5.97485404	     12.26650399	     -3.21928810	     -4.55168623
      5.42857143	     -4.50285160	     -7.39764612	     97.95331613	      0.23859241	      0.90149840	      0.49066618	     -3.52515075	     -0.93841462	     -0.68971281	      5.90341291	      0.10303399	     21.88499167	    -11.97990414	      0.00000000	     -1.74997500	      1.00321281	      1.69637466	      5.01263976	      0.08748707	     20.09774852	      3.70012521	      0.00000000	      0.15179041	     -0.84603458	      0.38829238	      0.28188998	     -1.12522599	      0.41256065	      0.24937647	     -2.05704848	      0.41256065	      0.17348126	     -2.05704848	      0.33975583	      0.14095258	     -1.72523372	      0.31548756	      0.08673304	     -1.31050757	      0.29121928	      1.08422374	     -9.57051240	      2.15956572	      0.00000000	      0.00000000	     28.29931480	     -3.63182983	    -21.48507703	     -0.36281686	    -17.30927890	     50.36928377	    142.52233916	     84.81782282	      1.55012927	     12.72142968	     11.45010399	    -12.44027305	    159.93888857	      6.00510031	     10.69287060	     -2.35494782	     -4.84824536
      5.44897959	     -4.48405724	     -7.61090085	     97.94498148	      0.23835935	      0.89976254	      0.48979401	     -3.33145898	     -0.96460763	     -0.06870242	      5.94360404	      0.10373546	     22.36536477	    -12.46629981	      0.00000000	     -1.64358348	      1.03486836	      2.42270374	      4.87593781	      0.08510117	     20.43132836	      3.08283660	      0.00000000	      0.19528776	     -0.84331967	      0.49019488	      0.36266890	     -1.12161516	      0.52083206	      0.32083826	     -2.05044744	      0.52083206	      0.22319438	     -2.05044744	      0.42892052	      0.18134421	     -1.71969746	      0.39828334	      0.11158743	     -1.30630216	      0.36764616	      1.39492093	     -9.53980073	      2.72631685	      0.00000000	      0.00000000	     28.32380584	     -4.08022146	    -21.86958825	     -1.68821044	    -17.02695756	     49.87035129	    142.49261624	     84.07214340	      2.33209835	     13.29571334	     11.19864538	    -12.48989534	    159.09260972	      6.08405193	     10.00352770	     -2.00968332	     -5.20957884
